{
	"patcher" : 	{
		"fileversion" : 1,
		"appversion" : 		{
			"major" : 8,
			"minor" : 5,
			"revision" : 6,
			"architecture" : "x64",
			"modernui" : 1
		}
,
		"classnamespace" : "box",
		"rect" : [ 566.0, 278.0, 1394.0, 753.0 ],
		"bglocked" : 0,
		"openinpresentation" : 1,
		"default_fontsize" : 12.0,
		"default_fontface" : 0,
		"default_fontname" : "Arial",
		"gridonopen" : 1,
		"gridsize" : [ 15.0, 15.0 ],
		"gridsnaponopen" : 1,
		"objectsnaponopen" : 1,
		"statusbarvisible" : 2,
		"toolbarvisible" : 1,
		"lefttoolbarpinned" : 0,
		"toptoolbarpinned" : 0,
		"righttoolbarpinned" : 0,
		"bottomtoolbarpinned" : 0,
		"toolbars_unpinned_last_save" : 0,
		"tallnewobj" : 0,
		"boxanimatetime" : 200,
		"enablehscroll" : 1,
		"enablevscroll" : 1,
		"devicewidth" : 0.0,
		"description" : "",
		"digest" : "",
		"tags" : "",
		"style" : "",
		"subpatcher_template" : "",
		"assistshowspatchername" : 0,
		"boxes" : [ 			{
				"box" : 				{
					"id" : "obj-29",
					"maxclass" : "message",
					"numinlets" : 2,
					"numoutlets" : 1,
					"outlettype" : [ "" ],
					"patching_rect" : [ 1219.66135847568512, 161.882754802703857, 141.0, 22.0 ],
					"text" : "pic Yaw_(Horizontal).png"
				}

			}
, 			{
				"box" : 				{
					"id" : "obj-28",
					"maxclass" : "message",
					"numinlets" : 2,
					"numoutlets" : 1,
					"outlettype" : [ "" ],
					"patching_rect" : [ 764.20093834400177, 161.882754802703857, 128.0, 22.0 ],
					"text" : "pic Roll_(Coronal).png"
				}

			}
, 			{
				"box" : 				{
					"id" : "obj-25",
					"maxclass" : "message",
					"numinlets" : 2,
					"numoutlets" : 1,
					"outlettype" : [ "" ],
					"patching_rect" : [ 1014.077265620231628, 161.882754802703857, 127.0, 22.0 ],
					"text" : "pic Pitch_(Medial).png"
				}

			}
, 			{
				"box" : 				{
					"id" : "obj-21",
					"maxclass" : "newobj",
					"numinlets" : 1,
					"numoutlets" : 1,
					"outlettype" : [ "" ],
					"patching_rect" : [ 820.0, 111.0, 54.0, 22.0 ],
					"text" : "deferlow"
				}

			}
, 			{
				"box" : 				{
					"id" : "obj-96",
					"linecount" : 2,
					"maxclass" : "comment",
					"numinlets" : 1,
					"numoutlets" : 0,
					"patching_rect" : [ 618.417250037193298, 848.0, 176.0, 34.0 ],
					"text" : "This send the zeroed outputs to the oscExt used by Unity"
				}

			}
, 			{
				"box" : 				{
					"id" : "obj-72",
					"maxclass" : "newobj",
					"numinlets" : 1,
					"numoutlets" : 1,
					"outlettype" : [ "bang" ],
					"patching_rect" : [ 445.146146893501282, 732.0, 58.0, 22.0 ],
					"text" : "loadbang"
				}

			}
, 			{
				"box" : 				{
					"id" : "obj-71",
					"maxclass" : "message",
					"numinlets" : 2,
					"numoutlets" : 1,
					"outlettype" : [ "" ],
					"patching_rect" : [ 445.146146893501282, 932.0, 313.422096371650696, 22.0 ],
					"text" : "/gyrosc/GyrOSC/gyro 0.28838 -0.1476 0.0725"
				}

			}
, 			{
				"box" : 				{
					"id" : "obj-69",
					"maxclass" : "message",
					"numinlets" : 2,
					"numoutlets" : 1,
					"outlettype" : [ "" ],
					"patching_rect" : [ 445.146146893501282, 773.0, 123.0, 22.0 ],
					"text" : "/gyrosc/GyrOSC/gyro"
				}

			}
, 			{
				"box" : 				{
					"id" : "obj-66",
					"maxclass" : "newobj",
					"numinlets" : 4,
					"numoutlets" : 1,
					"outlettype" : [ "" ],
					"patching_rect" : [ 445.146146893501282, 891.0, 123.0, 22.0 ],
					"text" : "join 4 @triggers 1 2 3"
				}

			}
, 			{
				"box" : 				{
					"id" : "obj-54",
					"maxclass" : "newobj",
					"numinlets" : 0,
					"numoutlets" : 1,
					"outlettype" : [ "" ],
					"patching_rect" : [ 549.146146893501282, 860.0, 37.0, 22.0 ],
					"text" : "r yaw"
				}

			}
, 			{
				"box" : 				{
					"id" : "obj-53",
					"maxclass" : "newobj",
					"numinlets" : 0,
					"numoutlets" : 1,
					"outlettype" : [ "" ],
					"patching_rect" : [ 514.479480226834653, 831.0, 32.0, 22.0 ],
					"text" : "r roll"
				}

			}
, 			{
				"box" : 				{
					"id" : "obj-46",
					"maxclass" : "newobj",
					"numinlets" : 0,
					"numoutlets" : 1,
					"outlettype" : [ "" ],
					"patching_rect" : [ 479.812813560167967, 804.0, 41.0, 22.0 ],
					"text" : "r pitch"
				}

			}
, 			{
				"box" : 				{
					"autofit" : 1,
					"forceaspect" : 1,
					"id" : "obj-2",
					"maxclass" : "fpic",
					"numinlets" : 1,
					"numoutlets" : 1,
					"outlettype" : [ "jit_matrix" ],
					"patching_rect" : [ 1014.077265620231628, 209.348671913146973, 100.0, 100.0 ],
					"pic" : "Pitch_(Medial).png"
				}

			}
, 			{
				"box" : 				{
					"id" : "obj-52",
					"linecount" : 7,
					"maxclass" : "comment",
					"numinlets" : 1,
					"numoutlets" : 0,
					"patching_rect" : [ 1437.349450707435608, 499.149859428405762, 292.16867995262146, 103.0 ],
					"text" : "I'm not exactly sure why, but these [deferlow] objects before the [jit.pwindow] objects seem to prevent numerous \"attempted draw in interrupt\" errors.\n\nSolution found here: https://cycling74.com/forums/jit-pwindow-attempted-draw-in-interrupt-when-sending-from-mxj-inside-of-pfft "
				}

			}
, 			{
				"box" : 				{
					"id" : "obj-45",
					"maxclass" : "newobj",
					"numinlets" : 1,
					"numoutlets" : 1,
					"outlettype" : [ "" ],
					"patching_rect" : [ 1219.66135847568512, 486.109538912773132, 54.0, 22.0 ],
					"text" : "deferlow"
				}

			}
, 			{
				"box" : 				{
					"id" : "obj-44",
					"maxclass" : "newobj",
					"numinlets" : 1,
					"numoutlets" : 1,
					"outlettype" : [ "" ],
					"patching_rect" : [ 812.077265620231628, 486.109538912773132, 54.0, 22.0 ],
					"text" : "deferlow"
				}

			}
, 			{
				"box" : 				{
					"id" : "obj-43",
					"maxclass" : "newobj",
					"numinlets" : 1,
					"numoutlets" : 1,
					"outlettype" : [ "" ],
					"patching_rect" : [ 1014.077265620231628, 486.109538912773132, 54.0, 22.0 ],
					"text" : "deferlow"
				}

			}
, 			{
				"box" : 				{
					"fontsize" : 14.0,
					"id" : "obj-42",
					"linecount" : 3,
					"maxclass" : "comment",
					"numinlets" : 1,
					"numoutlets" : 0,
					"patching_rect" : [ 36.743106126785278, 551.322274804115295, 261.0, 55.0 ],
					"presentation" : 1,
					"presentation_linecount" : 5,
					"presentation_rect" : [ 477.706144094467163, 416.012413501739502, 179.0, 87.0 ],
					"text" : "NOTE: At extreme Pitch values, you will experience gimbal lock, and moving too quickly will briefly freeze the patch",
					"textjustification" : 1
				}

			}
, 			{
				"box" : 				{
					"fontsize" : 24.0,
					"id" : "obj-35",
					"maxclass" : "comment",
					"numinlets" : 1,
					"numoutlets" : 0,
					"patching_rect" : [ 199.0, 285.0, 67.0, 34.0 ],
					"presentation" : 1,
					"presentation_rect" : [ 82.059536457061768, 350.364879846572876, 67.0, 34.0 ],
					"text" : "Port",
					"textjustification" : 1
				}

			}
, 			{
				"box" : 				{
					"id" : "obj-33",
					"maxclass" : "newobj",
					"numinlets" : 1,
					"numoutlets" : 1,
					"outlettype" : [ "bang" ],
					"patching_rect" : [ 93.429367005825043, 234.465917110443115, 58.0, 22.0 ],
					"text" : "loadbang"
				}

			}
, 			{
				"box" : 				{
					"id" : "obj-32",
					"maxclass" : "message",
					"numinlets" : 2,
					"numoutlets" : 1,
					"outlettype" : [ "" ],
					"patching_rect" : [ 97.429367005825043, 264.0, 35.0, 22.0 ],
					"text" : "8500"
				}

			}
, 			{
				"box" : 				{
					"id" : "obj-30",
					"linecount" : 2,
					"maxclass" : "message",
					"numinlets" : 2,
					"numoutlets" : 1,
					"outlettype" : [ "" ],
					"patching_rect" : [ 66.429367005825043, 358.779847992659143, 50.0, 36.0 ],
					"text" : "port 8500"
				}

			}
, 			{
				"box" : 				{
					"id" : "obj-26",
					"maxclass" : "number",
					"numinlets" : 1,
					"numoutlets" : 2,
					"outlettype" : [ "", "bang" ],
					"parameter_enable" : 0,
					"patching_rect" : [ 97.429367005825043, 292.675679696798852, 50.0, 22.0 ],
					"presentation" : 1,
					"presentation_rect" : [ 90.559536457061768, 402.502244472503662, 50.0, 22.0 ]
				}

			}
, 			{
				"box" : 				{
					"id" : "obj-24",
					"maxclass" : "message",
					"numinlets" : 2,
					"numoutlets" : 1,
					"outlettype" : [ "" ],
					"patching_rect" : [ 97.429367005825043, 327.578640116453698, 46.0, 22.0 ],
					"text" : "port $1"
				}

			}
, 			{
				"box" : 				{
					"fontsize" : 14.0,
					"id" : "obj-22",
					"linecount" : 3,
					"maxclass" : "comment",
					"numinlets" : 1,
					"numoutlets" : 0,
					"patching_rect" : [ 48.243106126785278, 451.323995471000671, 230.0, 55.0 ],
					"presentation" : 1,
					"presentation_linecount" : 3,
					"presentation_rect" : [ 9.775572177925369, 470.522582530975342, 230.0, 55.0 ],
					"text" : "Connect using GyrOSC on iOS, using the IP address on host computer, and the port above.",
					"textjustification" : 1
				}

			}
, 			{
				"box" : 				{
					"id" : "obj-20",
					"maxclass" : "button",
					"numinlets" : 1,
					"numoutlets" : 1,
					"outlettype" : [ "bang" ],
					"parameter_enable" : 0,
					"patching_rect" : [ 313.725500106811523, 90.849676072597504, 24.0, 24.0 ]
				}

			}
, 			{
				"box" : 				{
					"id" : "obj-19",
					"maxclass" : "message",
					"numinlets" : 2,
					"numoutlets" : 1,
					"outlettype" : [ "" ],
					"patching_rect" : [ 1340.047516405582428, 261.755093455314636, 29.5, 22.0 ],
					"text" : "100"
				}

			}
, 			{
				"box" : 				{
					"id" : "obj-11",
					"maxclass" : "message",
					"numinlets" : 2,
					"numoutlets" : 1,
					"outlettype" : [ "" ],
					"patching_rect" : [ 930.450115740299225, 261.755093455314636, 29.5, 22.0 ],
					"text" : "100"
				}

			}
, 			{
				"box" : 				{
					"id" : "obj-7",
					"maxclass" : "message",
					"numinlets" : 2,
					"numoutlets" : 1,
					"outlettype" : [ "" ],
					"patching_rect" : [ 1123.131639778614044, 261.755093455314636, 29.5, 22.0 ],
					"text" : "100"
				}

			}
, 			{
				"box" : 				{
					"fontsize" : 14.0,
					"id" : "obj-189",
					"linecount" : 4,
					"maxclass" : "comment",
					"numinlets" : 1,
					"numoutlets" : 0,
					"patching_rect" : [ 506.443573117256165, 24.1569983959198, 290.0, 71.0 ],
					"presentation" : 1,
					"presentation_linecount" : 3,
					"presentation_rect" : [ 169.218814611434937, 546.1569983959198, 331.0, 55.0 ],
					"text" : "Zeroing functionality allows you to set up the phone however is comfortable, and then set a resting position. This resets after the patch is closed.",
					"textjustification" : 1
				}

			}
, 			{
				"box" : 				{
					"format" : 6,
					"id" : "obj-184",
					"maxclass" : "flonum",
					"numinlets" : 1,
					"numoutlets" : 2,
					"outlettype" : [ "", "bang" ],
					"parameter_enable" : 0,
					"patching_rect" : [ 681.686480760574341, 546.923044323921204, 80.769228935241699, 22.0 ],
					"presentation" : 1,
					"presentation_rect" : [ 519.748100516357681, 111.208762764930725, 70.527471661567688, 22.0 ]
				}

			}
, 			{
				"box" : 				{
					"format" : 6,
					"id" : "obj-185",
					"maxclass" : "flonum",
					"numinlets" : 1,
					"numoutlets" : 2,
					"outlettype" : [ "", "bang" ],
					"parameter_enable" : 0,
					"patching_rect" : [ 692.186480760574341, 472.226784110069275, 90.090768098831177, 22.0 ]
				}

			}
, 			{
				"box" : 				{
					"id" : "obj-186",
					"maxclass" : "message",
					"numinlets" : 2,
					"numoutlets" : 1,
					"outlettype" : [ "" ],
					"patching_rect" : [ 692.186480760574341, 440.959092736244202, 91.538459062576294, 22.0 ],
					"text" : "0.012651"
				}

			}
, 			{
				"box" : 				{
					"id" : "obj-187",
					"maxclass" : "newobj",
					"numinlets" : 0,
					"numoutlets" : 1,
					"outlettype" : [ "" ],
					"patching_rect" : [ 692.186480760574341, 406.204721927642822, 39.0, 22.0 ],
					"text" : "r zero"
				}

			}
, 			{
				"box" : 				{
					"id" : "obj-188",
					"maxclass" : "newobj",
					"numinlets" : 2,
					"numoutlets" : 1,
					"outlettype" : [ "float" ],
					"patching_rect" : [ 681.686480760574341, 507.140159964561462, 29.5, 22.0 ],
					"text" : "- 0."
				}

			}
, 			{
				"box" : 				{
					"format" : 6,
					"id" : "obj-183",
					"maxclass" : "flonum",
					"numinlets" : 1,
					"numoutlets" : 2,
					"outlettype" : [ "", "bang" ],
					"parameter_enable" : 0,
					"patching_rect" : [ 561.239507138729095, 588.678616642951965, 50.0, 22.0 ],
					"presentation" : 1,
					"presentation_rect" : [ 80.059536457061768, 111.208762764930725, 71.0, 22.0 ]
				}

			}
, 			{
				"box" : 				{
					"format" : 6,
					"id" : "obj-178",
					"maxclass" : "flonum",
					"numinlets" : 1,
					"numoutlets" : 2,
					"outlettype" : [ "", "bang" ],
					"parameter_enable" : 0,
					"patching_rect" : [ 571.739507138729095, 472.226784110069275, 90.090768098831177, 22.0 ]
				}

			}
, 			{
				"box" : 				{
					"id" : "obj-179",
					"maxclass" : "message",
					"numinlets" : 2,
					"numoutlets" : 1,
					"outlettype" : [ "" ],
					"patching_rect" : [ 571.739507138729095, 440.959092736244202, 91.538459062576294, 22.0 ],
					"text" : "-0.006377"
				}

			}
, 			{
				"box" : 				{
					"id" : "obj-180",
					"maxclass" : "newobj",
					"numinlets" : 0,
					"numoutlets" : 1,
					"outlettype" : [ "" ],
					"patching_rect" : [ 571.739507138729095, 406.204721927642822, 39.0, 22.0 ],
					"text" : "r zero"
				}

			}
, 			{
				"box" : 				{
					"id" : "obj-181",
					"maxclass" : "newobj",
					"numinlets" : 2,
					"numoutlets" : 1,
					"outlettype" : [ "float" ],
					"patching_rect" : [ 561.239507138729095, 507.140159964561462, 29.5, 22.0 ],
					"text" : "- 0."
				}

			}
, 			{
				"box" : 				{
					"format" : 6,
					"id" : "obj-176",
					"maxclass" : "flonum",
					"numinlets" : 1,
					"numoutlets" : 2,
					"outlettype" : [ "", "bang" ],
					"parameter_enable" : 0,
					"patching_rect" : [ 445.146146893501282, 546.923044323921204, 80.769228935241699, 22.0 ],
					"presentation" : 1,
					"presentation_rect" : [ 299.059536457061768, 111.208762764930725, 71.0, 22.0 ]
				}

			}
, 			{
				"box" : 				{
					"format" : 6,
					"id" : "obj-172",
					"maxclass" : "flonum",
					"numinlets" : 1,
					"numoutlets" : 2,
					"outlettype" : [ "", "bang" ],
					"parameter_enable" : 0,
					"patching_rect" : [ 455.646146893501282, 472.226784110069275, 90.090768098831177, 22.0 ]
				}

			}
, 			{
				"box" : 				{
					"id" : "obj-170",
					"maxclass" : "message",
					"numinlets" : 2,
					"numoutlets" : 1,
					"outlettype" : [ "" ],
					"patching_rect" : [ 455.646146893501282, 440.959092736244202, 91.538459062576294, 22.0 ],
					"text" : "-0.180396"
				}

			}
, 			{
				"box" : 				{
					"id" : "obj-157",
					"maxclass" : "newobj",
					"numinlets" : 0,
					"numoutlets" : 1,
					"outlettype" : [ "" ],
					"patching_rect" : [ 455.646146893501282, 406.204721927642822, 39.0, 22.0 ],
					"text" : "r zero"
				}

			}
, 			{
				"box" : 				{
					"id" : "obj-132",
					"maxclass" : "newobj",
					"numinlets" : 2,
					"numoutlets" : 1,
					"outlettype" : [ "float" ],
					"patching_rect" : [ 445.146146893501282, 507.140159964561462, 29.5, 22.0 ],
					"text" : "- 0."
				}

			}
, 			{
				"box" : 				{
					"id" : "obj-131",
					"maxclass" : "button",
					"numinlets" : 1,
					"numoutlets" : 1,
					"outlettype" : [ "bang" ],
					"parameter_enable" : 0,
					"patching_rect" : [ 422.727978587150574, 24.1569983959198, 72.946487069129944, 72.946487069129944 ],
					"presentation" : 1,
					"presentation_rect" : [ 268.208645582199097, 393.502244472503662, 132.02033805847168, 132.02033805847168 ]
				}

			}
, 			{
				"box" : 				{
					"id" : "obj-129",
					"maxclass" : "newobj",
					"numinlets" : 1,
					"numoutlets" : 0,
					"patching_rect" : [ 422.727978587150574, 113.654411792755127, 41.0, 22.0 ],
					"text" : "s zero"
				}

			}
, 			{
				"box" : 				{
					"fontsize" : 20.0,
					"id" : "obj-128",
					"maxclass" : "comment",
					"numinlets" : 1,
					"numoutlets" : 0,
					"patching_rect" : [ 343.300424337387085, 24.1569983959198, 58.0, 29.0 ],
					"presentation" : 1,
					"presentation_rect" : [ 288.718814611434937, 350.364879846572876, 91.0, 29.0 ],
					"text" : "Zero",
					"textjustification" : 1
				}

			}
, 			{
				"box" : 				{
					"fontsize" : 30.0,
					"id" : "obj-127",
					"maxclass" : "comment",
					"numinlets" : 1,
					"numoutlets" : 0,
					"patching_rect" : [ 56.420102119445801, 18.1569983959198, 256.221217632293701, 41.0 ],
					"presentation" : 1,
					"presentation_rect" : [ 194.931228041648865, 11.344690084457397, 279.0, 41.0 ],
					"text" : "Headtracking",
					"textjustification" : 1
				}

			}
, 			{
				"box" : 				{
					"autofit" : 1,
					"forceaspect" : 1,
					"id" : "obj-126",
					"maxclass" : "fpic",
					"numinlets" : 1,
					"numoutlets" : 1,
					"outlettype" : [ "jit_matrix" ],
					"patching_rect" : [ 1219.66135847568512, 205.808849334716797, 100.0, 100.0 ],
					"pic" : "Yaw_(Horizontal).png"
				}

			}
, 			{
				"box" : 				{
					"id" : "obj-125",
					"maxclass" : "newobj",
					"numinlets" : 2,
					"numoutlets" : 1,
					"outlettype" : [ "float" ],
					"patching_rect" : [ 561.239507138729095, 546.923044323921204, 31.0, 22.0 ],
					"text" : "* -1."
				}

			}
, 			{
				"box" : 				{
					"id" : "obj-121",
					"maxclass" : "button",
					"numinlets" : 1,
					"numoutlets" : 1,
					"outlettype" : [ "bang" ],
					"parameter_enable" : 0,
					"patching_rect" : [ 769.146857440471649, 237.976819097995758, 24.0, 24.0 ]
				}

			}
, 			{
				"box" : 				{
					"id" : "obj-114",
					"maxclass" : "newobj",
					"numinlets" : 0,
					"numoutlets" : 1,
					"outlettype" : [ "" ],
					"patching_rect" : [ 769.146857440471649, 209.348671913146973, 32.0, 22.0 ],
					"text" : "r roll"
				}

			}
, 			{
				"box" : 				{
					"id" : "obj-112",
					"maxclass" : "button",
					"numinlets" : 1,
					"numoutlets" : 1,
					"outlettype" : [ "bang" ],
					"parameter_enable" : 0,
					"patching_rect" : [ 1171.873803555965424, 237.976819097995758, 24.0, 24.0 ]
				}

			}
, 			{
				"box" : 				{
					"id" : "obj-110",
					"maxclass" : "newobj",
					"numinlets" : 0,
					"numoutlets" : 1,
					"outlettype" : [ "" ],
					"patching_rect" : [ 1171.873803555965424, 205.808849334716797, 37.0, 22.0 ],
					"text" : "r yaw"
				}

			}
, 			{
				"box" : 				{
					"id" : "obj-109",
					"maxclass" : "newobj",
					"numinlets" : 0,
					"numoutlets" : 1,
					"outlettype" : [ "" ],
					"patching_rect" : [ 833.43440842628479, 382.206750273704529, 32.0, 22.0 ],
					"text" : "r roll"
				}

			}
, 			{
				"box" : 				{
					"id" : "obj-108",
					"maxclass" : "newobj",
					"numinlets" : 0,
					"numoutlets" : 1,
					"outlettype" : [ "" ],
					"patching_rect" : [ 1255.874122023582458, 382.206750273704529, 37.0, 22.0 ],
					"text" : "r yaw"
				}

			}
, 			{
				"box" : 				{
					"id" : "obj-107",
					"maxclass" : "newobj",
					"numinlets" : 0,
					"numoutlets" : 1,
					"outlettype" : [ "" ],
					"patching_rect" : [ 1053.201485812664032, 382.206750273704529, 41.0, 22.0 ],
					"text" : "r pitch"
				}

			}
, 			{
				"box" : 				{
					"attr" : "anchor_y",
					"id" : "obj-105",
					"maxclass" : "attrui",
					"numinlets" : 1,
					"numoutlets" : 1,
					"outlettype" : [ "" ],
					"parameter_enable" : 0,
					"patching_rect" : [ 1255.874122023582458, 347.083962678909302, 150.0, 22.0 ]
				}

			}
, 			{
				"box" : 				{
					"attr" : "anchor_x",
					"id" : "obj-106",
					"maxclass" : "attrui",
					"numinlets" : 1,
					"numoutlets" : 1,
					"outlettype" : [ "" ],
					"parameter_enable" : 0,
					"patching_rect" : [ 1255.874122023582458, 318.254177093505859, 150.0, 22.0 ]
				}

			}
, 			{
				"box" : 				{
					"attr" : "anchor_y",
					"id" : "obj-103",
					"maxclass" : "attrui",
					"numinlets" : 1,
					"numoutlets" : 1,
					"outlettype" : [ "" ],
					"parameter_enable" : 0,
					"patching_rect" : [ 1053.201485812664032, 347.083962678909302, 150.0, 22.0 ]
				}

			}
, 			{
				"box" : 				{
					"attr" : "anchor_x",
					"id" : "obj-104",
					"maxclass" : "attrui",
					"numinlets" : 1,
					"numoutlets" : 1,
					"outlettype" : [ "" ],
					"parameter_enable" : 0,
					"patching_rect" : [ 1053.201485812664032, 318.254177093505859, 150.0, 22.0 ]
				}

			}
, 			{
				"box" : 				{
					"attr" : "anchor_y",
					"id" : "obj-98",
					"maxclass" : "attrui",
					"numinlets" : 1,
					"numoutlets" : 1,
					"outlettype" : [ "" ],
					"parameter_enable" : 0,
					"patching_rect" : [ 833.43440842628479, 347.083962678909302, 150.0, 22.0 ]
				}

			}
, 			{
				"box" : 				{
					"attr" : "anchor_x",
					"id" : "obj-97",
					"maxclass" : "attrui",
					"numinlets" : 1,
					"numoutlets" : 1,
					"outlettype" : [ "" ],
					"parameter_enable" : 0,
					"patching_rect" : [ 833.43440842628479, 318.254177093505859, 150.0, 22.0 ]
				}

			}
, 			{
				"box" : 				{
					"id" : "obj-93",
					"maxclass" : "comment",
					"numinlets" : 1,
					"numoutlets" : 0,
					"patching_rect" : [ 523.211926341056824, 655.779847992659143, 110.176995992660522, 20.0 ],
					"text" : "Outputs are +/- pi "
				}

			}
, 			{
				"box" : 				{
					"id" : "obj-91",
					"maxclass" : "newobj",
					"numinlets" : 0,
					"numoutlets" : 1,
					"outlettype" : [ "" ],
					"patching_rect" : [ 965.810467541217804, 209.348671913146973, 41.0, 22.0 ],
					"text" : "r pitch"
				}

			}
, 			{
				"box" : 				{
					"id" : "obj-90",
					"linecount" : 6,
					"maxclass" : "comment",
					"numinlets" : 1,
					"numoutlets" : 0,
					"patching_rect" : [ 600.917248845100403, 161.882754802703857, 150.0, 89.0 ],
					"text" : "Occasionally an ipport message will be sent through, but we want to ensure that only gyroscope information is sent through"
				}

			}
, 			{
				"box" : 				{
					"id" : "obj-88",
					"maxclass" : "comment",
					"numinlets" : 1,
					"numoutlets" : 0,
					"patching_rect" : [ 84.706144094467163, 86.918530106544495, 207.692304253578186, 20.0 ],
					"text" : "Receiving OSC messages over UDP"
				}

			}
, 			{
				"box" : 				{
					"id" : "obj-86",
					"maxclass" : "newobj",
					"numinlets" : 2,
					"numoutlets" : 2,
					"outlettype" : [ "", "" ],
					"patching_rect" : [ 444.376916170120239, 260.097039580345154, 63.0, 22.0 ],
					"text" : "route gyro"
				}

			}
, 			{
				"box" : 				{
					"id" : "obj-85",
					"maxclass" : "newobj",
					"numinlets" : 2,
					"numoutlets" : 2,
					"outlettype" : [ "", "" ],
					"patching_rect" : [ 444.376916170120239, 225.949752926826477, 85.0, 22.0 ],
					"text" : "route GyrOSC"
				}

			}
, 			{
				"box" : 				{
					"id" : "obj-82",
					"maxclass" : "newobj",
					"numinlets" : 2,
					"numoutlets" : 2,
					"outlettype" : [ "", "" ],
					"patching_rect" : [ 444.376916170120239, 194.166806697845459, 75.0, 22.0 ],
					"text" : "route gyrosc"
				}

			}
, 			{
				"box" : 				{
					"id" : "obj-76",
					"maxclass" : "message",
					"numinlets" : 2,
					"numoutlets" : 1,
					"outlettype" : [ "" ],
					"patching_rect" : [ 444.376916170120239, 308.810765147209167, 177.221765697002411, 22.0 ],
					"text" : "-0.180396 -0.006377 0.012651"
				}

			}
, 			{
				"box" : 				{
					"id" : "obj-4",
					"maxclass" : "newobj",
					"numinlets" : 1,
					"numoutlets" : 5,
					"outlettype" : [ "", "", "", "", "" ],
					"patching_rect" : [ 444.220760941505432, 161.882754802703857, 142.0, 22.0 ],
					"text" : "regexp (/) @substitute \" \""
				}

			}
, 			{
				"box" : 				{
					"id" : "obj-67",
					"maxclass" : "newobj",
					"numinlets" : 1,
					"numoutlets" : 0,
					"patching_rect" : [ 681.686480760574341, 588.678616642951965, 39.0, 22.0 ],
					"text" : "s yaw"
				}

			}
, 			{
				"box" : 				{
					"id" : "obj-64",
					"maxclass" : "newobj",
					"numinlets" : 1,
					"numoutlets" : 0,
					"patching_rect" : [ 561.239507138729095, 624.186998605728149, 34.0, 22.0 ],
					"text" : "s roll"
				}

			}
, 			{
				"box" : 				{
					"id" : "obj-63",
					"maxclass" : "newobj",
					"numinlets" : 2,
					"numoutlets" : 2,
					"outlettype" : [ "", "" ],
					"patching_rect" : [ 680.917250037193298, 362.129305958747864, 51.0, 22.0 ],
					"text" : "zl mth 2"
				}

			}
, 			{
				"box" : 				{
					"id" : "obj-59",
					"maxclass" : "newobj",
					"numinlets" : 2,
					"numoutlets" : 2,
					"outlettype" : [ "", "" ],
					"patching_rect" : [ 560.470276415348053, 362.129305958747864, 51.0, 22.0 ],
					"text" : "zl mth 1"
				}

			}
, 			{
				"box" : 				{
					"id" : "obj-51",
					"maxclass" : "newobj",
					"numinlets" : 1,
					"numoutlets" : 0,
					"patching_rect" : [ 445.146146893501282, 588.678616642951965, 43.0, 22.0 ],
					"text" : "s pitch"
				}

			}
, 			{
				"box" : 				{
					"id" : "obj-50",
					"maxclass" : "newobj",
					"numinlets" : 2,
					"numoutlets" : 2,
					"outlettype" : [ "", "" ],
					"patching_rect" : [ 444.674465656280518, 362.129305958747864, 51.0, 22.0 ],
					"text" : "zl mth 0"
				}

			}
, 			{
				"box" : 				{
					"fontsize" : 24.0,
					"id" : "obj-49",
					"maxclass" : "comment",
					"numinlets" : 1,
					"numoutlets" : 0,
					"patching_rect" : [ 855.749680995941162, 27.654411792755127, 71.0, 34.0 ],
					"presentation" : 1,
					"presentation_rect" : [ 80.059536457061768, 68.026097297668457, 71.0, 34.0 ],
					"text" : "Roll",
					"textjustification" : 1
				}

			}
, 			{
				"box" : 				{
					"fontsize" : 24.0,
					"id" : "obj-48",
					"maxclass" : "comment",
					"numinlets" : 1,
					"numoutlets" : 0,
					"patching_rect" : [ 1255.874122023582458, 27.654411792755127, 71.0, 34.0 ],
					"presentation" : 1,
					"presentation_rect" : [ 519.275572177925369, 68.026097297668457, 71.0, 34.0 ],
					"text" : "Yaw",
					"textjustification" : 1
				}

			}
, 			{
				"box" : 				{
					"fontsize" : 24.0,
					"id" : "obj-47",
					"maxclass" : "comment",
					"numinlets" : 1,
					"numoutlets" : 0,
					"patching_rect" : [ 1047.077265620231628, 27.654411792755127, 71.0, 34.0 ],
					"presentation" : 1,
					"presentation_rect" : [ 298.913516283035278, 68.026097297668457, 71.0, 34.0 ],
					"text" : "Pitch",
					"textjustification" : 1
				}

			}
, 			{
				"box" : 				{
					"autofit" : 1,
					"forceaspect" : 1,
					"id" : "obj-40",
					"maxclass" : "fpic",
					"numinlets" : 1,
					"numoutlets" : 1,
					"outlettype" : [ "jit_matrix" ],
					"patching_rect" : [ 812.077265620231628, 209.348671913146973, 100.0, 100.0 ],
					"pic" : "Roll_(Coronal).png"
				}

			}
, 			{
				"box" : 				{
					"attr" : "theta",
					"id" : "obj-16",
					"maxclass" : "attrui",
					"numinlets" : 1,
					"numoutlets" : 1,
					"outlettype" : [ "" ],
					"parameter_enable" : 0,
					"patching_rect" : [ 1255.874122023582458, 418.751561939716339, 150.0, 22.0 ]
				}

			}
, 			{
				"box" : 				{
					"id" : "obj-17",
					"maxclass" : "jit.pwindow",
					"numinlets" : 1,
					"numoutlets" : 2,
					"outlettype" : [ "jit_matrix", "" ],
					"patching_rect" : [ 1219.66135847568512, 513.032614231109619, 161.360982889252227, 159.344830751419067 ],
					"presentation" : 1,
					"presentation_rect" : [ 460.984844214064765, 139.958268493413925, 187.581455927721322, 184.478701157570413 ],
					"sync" : 1
				}

			}
, 			{
				"box" : 				{
					"id" : "obj-18",
					"maxclass" : "newobj",
					"numinlets" : 1,
					"numoutlets" : 2,
					"outlettype" : [ "jit_matrix", "" ],
					"patching_rect" : [ 1219.66135847568512, 459.318243622779846, 41.0, 22.0 ],
					"text" : "jit.rota"
				}

			}
, 			{
				"box" : 				{
					"attr" : "theta",
					"id" : "obj-13",
					"maxclass" : "attrui",
					"numinlets" : 1,
					"numoutlets" : 1,
					"outlettype" : [ "" ],
					"parameter_enable" : 0,
					"patching_rect" : [ 1053.201485812664032, 418.751561939716339, 150.0, 22.0 ]
				}

			}
, 			{
				"box" : 				{
					"bordercolor" : [ 0.929411764705882, 0.36078431372549, 0.866666666666667, 1.0 ],
					"id" : "obj-14",
					"maxclass" : "jit.pwindow",
					"numinlets" : 1,
					"numoutlets" : 2,
					"outlettype" : [ "jit_matrix", "" ],
					"patching_rect" : [ 1014.077265620231628, 513.032614231109619, 157.735287006455223, 159.344830751419067 ],
					"presentation" : 1,
					"presentation_rect" : [ 242.698650680106084, 139.958268493413925, 183.42973120585836, 183.982998288089902 ],
					"sync" : 1
				}

			}
, 			{
				"box" : 				{
					"id" : "obj-15",
					"maxclass" : "newobj",
					"numinlets" : 1,
					"numoutlets" : 2,
					"outlettype" : [ "jit_matrix", "" ],
					"patching_rect" : [ 1014.077265620231628, 459.318243622779846, 41.0, 22.0 ],
					"text" : "jit.rota"
				}

			}
, 			{
				"box" : 				{
					"attr" : "theta",
					"id" : "obj-12",
					"maxclass" : "attrui",
					"numinlets" : 1,
					"numoutlets" : 1,
					"outlettype" : [ "" ],
					"parameter_enable" : 0,
					"patching_rect" : [ 833.43440842628479, 418.751561939716339, 150.0, 22.0 ]
				}

			}
, 			{
				"box" : 				{
					"id" : "obj-8",
					"maxclass" : "button",
					"numinlets" : 1,
					"numoutlets" : 1,
					"outlettype" : [ "bang" ],
					"parameter_enable" : 0,
					"patching_rect" : [ 965.810467541217804, 237.976819097995758, 24.0, 24.0 ]
				}

			}
, 			{
				"box" : 				{
					"bordercolor" : [ 1.0, 1.0, 1.0, 1.0 ],
					"id" : "obj-6",
					"maxclass" : "jit.pwindow",
					"numinlets" : 1,
					"numoutlets" : 2,
					"outlettype" : [ "jit_matrix", "" ],
					"patching_rect" : [ 812.077265620231628, 513.032614231109619, 158.344830751419067, 159.344830751419067 ],
					"presentation" : 1,
					"presentation_rect" : [ 21.747432839991959, 139.958268493413925, 187.624207234139618, 188.809116184711456 ],
					"sync" : 1
				}

			}
, 			{
				"box" : 				{
					"id" : "obj-5",
					"maxclass" : "newobj",
					"numinlets" : 1,
					"numoutlets" : 1,
					"outlettype" : [ "bang" ],
					"patching_rect" : [ 876.210027813911438, 74.006518363952637, 58.0, 22.0 ],
					"text" : "loadbang"
				}

			}
, 			{
				"box" : 				{
					"id" : "obj-38",
					"maxclass" : "newobj",
					"numinlets" : 1,
					"numoutlets" : 2,
					"outlettype" : [ "jit_matrix", "" ],
					"patching_rect" : [ 812.077265620231628, 459.318243622779846, 41.0, 22.0 ],
					"text" : "jit.rota"
				}

			}
, 			{
				"box" : 				{
					"id" : "obj-27",
					"maxclass" : "newobj",
					"numinlets" : 1,
					"numoutlets" : 0,
					"patching_rect" : [ 445.146146893501282, 973.955481767654419, 158.0, 22.0 ],
					"text" : "udpsend 192.168.56.1 9999"
				}

			}
, 			{
				"box" : 				{
					"id" : "obj-10",
					"maxclass" : "message",
					"numinlets" : 2,
					"numoutlets" : 1,
					"outlettype" : [ "" ],
					"patching_rect" : [ 88.243106126785278, 169.131959199905396, 313.0, 22.0 ],
					"text" : "/gyrosc/GyrOSC/gyro -0.180396 -0.006377 0.012651"
				}

			}
, 			{
				"box" : 				{
					"id" : "obj-1",
					"maxclass" : "newobj",
					"numinlets" : 1,
					"numoutlets" : 1,
					"outlettype" : [ "" ],
					"patching_rect" : [ 88.243106126785278, 115.337840557098389, 97.0, 22.0 ],
					"text" : "udpreceive 8500"
				}

			}
 ],
		"lines" : [ 			{
				"patchline" : 				{
					"destination" : [ "obj-10", 1 ],
					"midpoints" : [ 97.743106126785278, 151.734899878501892, 391.743106126785278, 151.734899878501892 ],
					"order" : 1,
					"source" : [ "obj-1", 0 ]
				}

			}
, 			{
				"patchline" : 				{
					"destination" : [ "obj-10", 0 ],
					"order" : 2,
					"source" : [ "obj-1", 0 ]
				}

			}
, 			{
				"patchline" : 				{
					"destination" : [ "obj-4", 0 ],
					"midpoints" : [ 97.743106126785278, 149.110297679901123, 453.720760941505432, 149.110297679901123 ],
					"order" : 0,
					"source" : [ "obj-1", 0 ]
				}

			}
, 			{
				"patchline" : 				{
					"destination" : [ "obj-15", 0 ],
					"midpoints" : [ 1062.701485812664032, 377.093960642814636, 1023.577265620231628, 377.093960642814636 ],
					"source" : [ "obj-103", 0 ]
				}

			}
, 			{
				"patchline" : 				{
					"destination" : [ "obj-15", 0 ],
					"midpoints" : [ 1062.701485812664032, 378.7504962682724, 1023.577265620231628, 378.7504962682724 ],
					"source" : [ "obj-104", 0 ]
				}

			}
, 			{
				"patchline" : 				{
					"destination" : [ "obj-18", 0 ],
					"midpoints" : [ 1265.374122023582458, 377.98681777715683, 1229.16135847568512, 377.98681777715683 ],
					"source" : [ "obj-105", 0 ]
				}

			}
, 			{
				"patchline" : 				{
					"destination" : [ "obj-18", 0 ],
					"midpoints" : [ 1265.374122023582458, 378.7504962682724, 1229.16135847568512, 378.7504962682724 ],
					"source" : [ "obj-106", 0 ]
				}

			}
, 			{
				"patchline" : 				{
					"destination" : [ "obj-13", 0 ],
					"source" : [ "obj-107", 0 ]
				}

			}
, 			{
				"patchline" : 				{
					"destination" : [ "obj-16", 0 ],
					"source" : [ "obj-108", 0 ]
				}

			}
, 			{
				"patchline" : 				{
					"destination" : [ "obj-12", 0 ],
					"source" : [ "obj-109", 0 ]
				}

			}
, 			{
				"patchline" : 				{
					"destination" : [ "obj-97", 0 ],
					"midpoints" : [ 939.950115740299225, 314.790349423885345, 842.93440842628479, 314.790349423885345 ],
					"order" : 1,
					"source" : [ "obj-11", 0 ]
				}

			}
, 			{
				"patchline" : 				{
					"destination" : [ "obj-98", 0 ],
					"midpoints" : [ 939.950115740299225, 314.919528067111969, 842.93440842628479, 314.919528067111969 ],
					"order" : 0,
					"source" : [ "obj-11", 0 ]
				}

			}
, 			{
				"patchline" : 				{
					"destination" : [ "obj-112", 0 ],
					"source" : [ "obj-110", 0 ]
				}

			}
, 			{
				"patchline" : 				{
					"destination" : [ "obj-126", 0 ],
					"midpoints" : [ 1181.373803555965424, 271.976819097995758, 1213.059788733720779, 271.976819097995758, 1213.059788733720779, 194.808849334716797, 1229.16135847568512, 194.808849334716797 ],
					"order" : 1,
					"source" : [ "obj-112", 0 ]
				}

			}
, 			{
				"patchline" : 				{
					"destination" : [ "obj-18", 0 ],
					"midpoints" : [ 1181.373803555965424, 315.092584103345871, 1229.16135847568512, 315.092584103345871 ],
					"order" : 0,
					"source" : [ "obj-112", 0 ]
				}

			}
, 			{
				"patchline" : 				{
					"destination" : [ "obj-121", 0 ],
					"source" : [ "obj-114", 0 ]
				}

			}
, 			{
				"patchline" : 				{
					"destination" : [ "obj-38", 0 ],
					"source" : [ "obj-12", 0 ]
				}

			}
, 			{
				"patchline" : 				{
					"destination" : [ "obj-38", 0 ],
					"midpoints" : [ 778.646857440471649, 318.938738137483597, 821.577265620231628, 318.938738137483597 ],
					"order" : 0,
					"source" : [ "obj-121", 0 ]
				}

			}
, 			{
				"patchline" : 				{
					"destination" : [ "obj-40", 0 ],
					"midpoints" : [ 778.646857440471649, 271.976819097995758, 807.19170668721199, 271.976819097995758, 807.19170668721199, 198.348671913146973, 821.577265620231628, 198.348671913146973 ],
					"order" : 1,
					"source" : [ "obj-121", 0 ]
				}

			}
, 			{
				"patchline" : 				{
					"destination" : [ "obj-183", 0 ],
					"source" : [ "obj-125", 0 ]
				}

			}
, 			{
				"patchline" : 				{
					"destination" : [ "obj-18", 0 ],
					"source" : [ "obj-126", 0 ]
				}

			}
, 			{
				"patchline" : 				{
					"destination" : [ "obj-15", 0 ],
					"source" : [ "obj-13", 0 ]
				}

			}
, 			{
				"patchline" : 				{
					"destination" : [ "obj-129", 0 ],
					"source" : [ "obj-131", 0 ]
				}

			}
, 			{
				"patchline" : 				{
					"destination" : [ "obj-176", 0 ],
					"source" : [ "obj-132", 0 ]
				}

			}
, 			{
				"patchline" : 				{
					"destination" : [ "obj-43", 0 ],
					"source" : [ "obj-15", 0 ]
				}

			}
, 			{
				"patchline" : 				{
					"destination" : [ "obj-170", 0 ],
					"source" : [ "obj-157", 0 ]
				}

			}
, 			{
				"patchline" : 				{
					"destination" : [ "obj-18", 0 ],
					"source" : [ "obj-16", 0 ]
				}

			}
, 			{
				"patchline" : 				{
					"destination" : [ "obj-172", 0 ],
					"source" : [ "obj-170", 0 ]
				}

			}
, 			{
				"patchline" : 				{
					"destination" : [ "obj-132", 1 ],
					"source" : [ "obj-172", 0 ]
				}

			}
, 			{
				"patchline" : 				{
					"destination" : [ "obj-51", 0 ],
					"source" : [ "obj-176", 0 ]
				}

			}
, 			{
				"patchline" : 				{
					"destination" : [ "obj-181", 1 ],
					"source" : [ "obj-178", 0 ]
				}

			}
, 			{
				"patchline" : 				{
					"destination" : [ "obj-178", 0 ],
					"source" : [ "obj-179", 0 ]
				}

			}
, 			{
				"patchline" : 				{
					"destination" : [ "obj-45", 0 ],
					"source" : [ "obj-18", 0 ]
				}

			}
, 			{
				"patchline" : 				{
					"destination" : [ "obj-179", 0 ],
					"source" : [ "obj-180", 0 ]
				}

			}
, 			{
				"patchline" : 				{
					"destination" : [ "obj-125", 0 ],
					"source" : [ "obj-181", 0 ]
				}

			}
, 			{
				"patchline" : 				{
					"destination" : [ "obj-64", 0 ],
					"source" : [ "obj-183", 0 ]
				}

			}
, 			{
				"patchline" : 				{
					"destination" : [ "obj-67", 0 ],
					"source" : [ "obj-184", 0 ]
				}

			}
, 			{
				"patchline" : 				{
					"destination" : [ "obj-188", 1 ],
					"source" : [ "obj-185", 0 ]
				}

			}
, 			{
				"patchline" : 				{
					"destination" : [ "obj-185", 0 ],
					"source" : [ "obj-186", 0 ]
				}

			}
, 			{
				"patchline" : 				{
					"destination" : [ "obj-186", 0 ],
					"source" : [ "obj-187", 0 ]
				}

			}
, 			{
				"patchline" : 				{
					"destination" : [ "obj-184", 0 ],
					"source" : [ "obj-188", 0 ]
				}

			}
, 			{
				"patchline" : 				{
					"destination" : [ "obj-105", 0 ],
					"midpoints" : [ 1349.547516405582428, 314.919528067111969, 1265.374122023582458, 314.919528067111969 ],
					"order" : 0,
					"source" : [ "obj-19", 0 ]
				}

			}
, 			{
				"patchline" : 				{
					"destination" : [ "obj-106", 0 ],
					"midpoints" : [ 1349.547516405582428, 315.439700067043304, 1265.374122023582458, 315.439700067043304 ],
					"order" : 1,
					"source" : [ "obj-19", 0 ]
				}

			}
, 			{
				"patchline" : 				{
					"destination" : [ "obj-15", 0 ],
					"source" : [ "obj-2", 0 ]
				}

			}
, 			{
				"patchline" : 				{
					"destination" : [ "obj-126", 0 ],
					"midpoints" : [ 829.5, 137.96304726600647, 1229.16135847568512, 137.96304726600647 ],
					"order" : 0,
					"source" : [ "obj-21", 0 ]
				}

			}
, 			{
				"patchline" : 				{
					"destination" : [ "obj-2", 0 ],
					"order" : 2,
					"source" : [ "obj-21", 0 ]
				}

			}
, 			{
				"patchline" : 				{
					"destination" : [ "obj-25", 0 ],
					"order" : 3,
					"source" : [ "obj-21", 0 ]
				}

			}
, 			{
				"patchline" : 				{
					"destination" : [ "obj-28", 0 ],
					"midpoints" : [ 829.5, 137.560975551605225, 773.70093834400177, 137.560975551605225 ],
					"order" : 5,
					"source" : [ "obj-21", 0 ]
				}

			}
, 			{
				"patchline" : 				{
					"destination" : [ "obj-29", 0 ],
					"midpoints" : [ 829.5, 138.073171138763428, 1229.16135847568512, 138.073171138763428 ],
					"order" : 1,
					"source" : [ "obj-21", 0 ]
				}

			}
, 			{
				"patchline" : 				{
					"destination" : [ "obj-40", 0 ],
					"midpoints" : [ 829.5, 136.732958555221558, 821.577265620231628, 136.732958555221558 ],
					"order" : 4,
					"source" : [ "obj-21", 0 ]
				}

			}
, 			{
				"patchline" : 				{
					"destination" : [ "obj-30", 1 ],
					"source" : [ "obj-24", 0 ]
				}

			}
, 			{
				"patchline" : 				{
					"destination" : [ "obj-2", 0 ],
					"source" : [ "obj-25", 0 ]
				}

			}
, 			{
				"patchline" : 				{
					"destination" : [ "obj-24", 0 ],
					"source" : [ "obj-26", 0 ]
				}

			}
, 			{
				"patchline" : 				{
					"destination" : [ "obj-40", 0 ],
					"source" : [ "obj-28", 0 ]
				}

			}
, 			{
				"patchline" : 				{
					"destination" : [ "obj-126", 0 ],
					"source" : [ "obj-29", 0 ]
				}

			}
, 			{
				"patchline" : 				{
					"destination" : [ "obj-1", 0 ],
					"midpoints" : [ 75.929367005825043, 404.779847992659143, 51.836236566305161, 404.779847992659143, 51.836236566305161, 104.337840557098389, 97.743106126785278, 104.337840557098389 ],
					"source" : [ "obj-30", 0 ]
				}

			}
, 			{
				"patchline" : 				{
					"destination" : [ "obj-26", 0 ],
					"source" : [ "obj-32", 0 ]
				}

			}
, 			{
				"patchline" : 				{
					"destination" : [ "obj-32", 0 ],
					"source" : [ "obj-33", 0 ]
				}

			}
, 			{
				"patchline" : 				{
					"destination" : [ "obj-44", 0 ],
					"source" : [ "obj-38", 0 ]
				}

			}
, 			{
				"patchline" : 				{
					"destination" : [ "obj-82", 0 ],
					"source" : [ "obj-4", 0 ]
				}

			}
, 			{
				"patchline" : 				{
					"destination" : [ "obj-38", 0 ],
					"source" : [ "obj-40", 0 ]
				}

			}
, 			{
				"patchline" : 				{
					"destination" : [ "obj-14", 0 ],
					"source" : [ "obj-43", 0 ]
				}

			}
, 			{
				"patchline" : 				{
					"destination" : [ "obj-6", 0 ],
					"source" : [ "obj-44", 0 ]
				}

			}
, 			{
				"patchline" : 				{
					"destination" : [ "obj-17", 0 ],
					"source" : [ "obj-45", 0 ]
				}

			}
, 			{
				"patchline" : 				{
					"destination" : [ "obj-66", 1 ],
					"source" : [ "obj-46", 0 ]
				}

			}
, 			{
				"patchline" : 				{
					"destination" : [ "obj-11", 0 ],
					"midpoints" : [ 885.710027813911438, 177.868000209331512, 939.950115740299225, 177.868000209331512 ],
					"order" : 4,
					"source" : [ "obj-5", 0 ]
				}

			}
, 			{
				"patchline" : 				{
					"destination" : [ "obj-15", 0 ],
					"midpoints" : [ 885.710027813911438, 305.221003592014313, 1023.577265620231628, 305.221003592014313 ],
					"order" : 3,
					"source" : [ "obj-5", 0 ]
				}

			}
, 			{
				"patchline" : 				{
					"destination" : [ "obj-18", 0 ],
					"midpoints" : [ 885.710027813911438, 305.221003592014313, 1229.16135847568512, 305.221003592014313 ],
					"order" : 1,
					"source" : [ "obj-5", 0 ]
				}

			}
, 			{
				"patchline" : 				{
					"destination" : [ "obj-19", 0 ],
					"midpoints" : [ 885.710027813911438, 177.218649566173553, 1349.547516405582428, 177.218649566173553 ],
					"order" : 0,
					"source" : [ "obj-5", 0 ]
				}

			}
, 			{
				"patchline" : 				{
					"destination" : [ "obj-21", 0 ],
					"order" : 5,
					"source" : [ "obj-5", 0 ]
				}

			}
, 			{
				"patchline" : 				{
					"destination" : [ "obj-38", 0 ],
					"midpoints" : [ 885.710027813911438, 305.221003592014313, 821.577265620231628, 305.221003592014313 ],
					"order" : 6,
					"source" : [ "obj-5", 0 ]
				}

			}
, 			{
				"patchline" : 				{
					"destination" : [ "obj-7", 0 ],
					"midpoints" : [ 885.710027813911438, 171.439428508281708, 1132.631639778614044, 171.439428508281708 ],
					"order" : 2,
					"source" : [ "obj-5", 0 ]
				}

			}
, 			{
				"patchline" : 				{
					"destination" : [ "obj-132", 0 ],
					"midpoints" : [ 454.174465656280518, 464.750116407871246, 454.646146893501282, 464.750116407871246 ],
					"order" : 1,
					"source" : [ "obj-50", 0 ]
				}

			}
, 			{
				"patchline" : 				{
					"destination" : [ "obj-170", 1 ],
					"midpoints" : [ 454.174465656280518, 393.967277348041534, 537.684605956077576, 393.967277348041534 ],
					"order" : 0,
					"source" : [ "obj-50", 0 ]
				}

			}
, 			{
				"patchline" : 				{
					"destination" : [ "obj-66", 2 ],
					"source" : [ "obj-53", 0 ]
				}

			}
, 			{
				"patchline" : 				{
					"destination" : [ "obj-66", 3 ],
					"source" : [ "obj-54", 0 ]
				}

			}
, 			{
				"patchline" : 				{
					"destination" : [ "obj-179", 1 ],
					"midpoints" : [ 569.970276415348053, 396.659584879875183, 653.777966201305389, 396.659584879875183 ],
					"order" : 0,
					"source" : [ "obj-59", 0 ]
				}

			}
, 			{
				"patchline" : 				{
					"destination" : [ "obj-181", 0 ],
					"order" : 1,
					"source" : [ "obj-59", 0 ]
				}

			}
, 			{
				"patchline" : 				{
					"destination" : [ "obj-186", 1 ],
					"midpoints" : [ 690.417250037193298, 399.736507773399353, 774.224939823150635, 399.736507773399353 ],
					"order" : 0,
					"source" : [ "obj-63", 0 ]
				}

			}
, 			{
				"patchline" : 				{
					"destination" : [ "obj-188", 0 ],
					"order" : 1,
					"source" : [ "obj-63", 0 ]
				}

			}
, 			{
				"patchline" : 				{
					"destination" : [ "obj-71", 1 ],
					"midpoints" : [ 454.646146893501282, 922.0, 749.068243265151978, 922.0 ],
					"order" : 0,
					"source" : [ "obj-66", 0 ]
				}

			}
, 			{
				"patchline" : 				{
					"destination" : [ "obj-71", 0 ],
					"order" : 1,
					"source" : [ "obj-66", 0 ]
				}

			}
, 			{
				"patchline" : 				{
					"destination" : [ "obj-66", 0 ],
					"source" : [ "obj-69", 0 ]
				}

			}
, 			{
				"patchline" : 				{
					"destination" : [ "obj-103", 0 ],
					"midpoints" : [ 1132.631639778614044, 314.919528067111969, 1062.701485812664032, 314.919528067111969 ],
					"order" : 0,
					"source" : [ "obj-7", 0 ]
				}

			}
, 			{
				"patchline" : 				{
					"destination" : [ "obj-104", 0 ],
					"midpoints" : [ 1132.631639778614044, 314.334422409534454, 1062.701485812664032, 314.334422409534454 ],
					"order" : 1,
					"source" : [ "obj-7", 0 ]
				}

			}
, 			{
				"patchline" : 				{
					"destination" : [ "obj-27", 0 ],
					"source" : [ "obj-71", 0 ]
				}

			}
, 			{
				"patchline" : 				{
					"destination" : [ "obj-69", 0 ],
					"source" : [ "obj-72", 0 ]
				}

			}
, 			{
				"patchline" : 				{
					"destination" : [ "obj-50", 0 ],
					"midpoints" : [ 453.876916170120239, 345.970035552978516, 454.174465656280518, 345.970035552978516 ],
					"order" : 2,
					"source" : [ "obj-76", 0 ]
				}

			}
, 			{
				"patchline" : 				{
					"destination" : [ "obj-59", 0 ],
					"midpoints" : [ 453.876916170120239, 345.970035552978516, 569.970276415348053, 345.970035552978516 ],
					"order" : 1,
					"source" : [ "obj-76", 0 ]
				}

			}
, 			{
				"patchline" : 				{
					"destination" : [ "obj-63", 0 ],
					"midpoints" : [ 453.876916170120239, 345.970035552978516, 690.417250037193298, 345.970035552978516 ],
					"order" : 0,
					"source" : [ "obj-76", 0 ]
				}

			}
, 			{
				"patchline" : 				{
					"destination" : [ "obj-15", 0 ],
					"midpoints" : [ 975.310467541217804, 315.64203467965126, 1023.577265620231628, 315.64203467965126 ],
					"order" : 0,
					"source" : [ "obj-8", 0 ]
				}

			}
, 			{
				"patchline" : 				{
					"destination" : [ "obj-2", 0 ],
					"midpoints" : [ 975.310467541217804, 271.976819097995758, 1011.49743789434433, 271.976819097995758, 1011.49743789434433, 198.348671913146973, 1023.577265620231628, 198.348671913146973 ],
					"order" : 1,
					"source" : [ "obj-8", 0 ]
				}

			}
, 			{
				"patchline" : 				{
					"destination" : [ "obj-85", 0 ],
					"source" : [ "obj-82", 0 ]
				}

			}
, 			{
				"patchline" : 				{
					"destination" : [ "obj-86", 0 ],
					"source" : [ "obj-85", 0 ]
				}

			}
, 			{
				"patchline" : 				{
					"destination" : [ "obj-76", 1 ],
					"midpoints" : [ 453.876916170120239, 298.415440618991852, 612.09868186712265, 298.415440618991852 ],
					"order" : 0,
					"source" : [ "obj-86", 0 ]
				}

			}
, 			{
				"patchline" : 				{
					"destination" : [ "obj-76", 0 ],
					"order" : 1,
					"source" : [ "obj-86", 0 ]
				}

			}
, 			{
				"patchline" : 				{
					"destination" : [ "obj-8", 0 ],
					"source" : [ "obj-91", 0 ]
				}

			}
, 			{
				"patchline" : 				{
					"destination" : [ "obj-38", 0 ],
					"midpoints" : [ 842.93440842628479, 378.7504962682724, 821.577265620231628, 378.7504962682724 ],
					"source" : [ "obj-97", 0 ]
				}

			}
, 			{
				"patchline" : 				{
					"destination" : [ "obj-38", 0 ],
					"midpoints" : [ 842.93440842628479, 377.98681777715683, 821.577265620231628, 377.98681777715683 ],
					"source" : [ "obj-98", 0 ]
				}

			}
 ],
		"dependency_cache" : [ 			{
				"name" : "Pitch_(Medial).png",
				"bootpath" : "~/Documents/Bryce stuff/AES Presentation/JCURA_Max_Headtracking",
				"patcherrelativepath" : ".",
				"type" : "PNG",
				"implicit" : 1
			}
, 			{
				"name" : "Roll_(Coronal).png",
				"bootpath" : "~/Documents/Bryce stuff/AES Presentation/JCURA_Max_Headtracking",
				"patcherrelativepath" : ".",
				"type" : "PNG",
				"implicit" : 1
			}
, 			{
				"name" : "Yaw_(Horizontal).png",
				"bootpath" : "~/Documents/Bryce stuff/AES Presentation/JCURA_Max_Headtracking",
				"patcherrelativepath" : ".",
				"type" : "PNG",
				"implicit" : 1
			}
 ],
		"autosave" : 0
	}

}
